<svg width="280" height="188" viewBox="0 0 280 188" fill="none" xmlns="http://www.w3.org/2000/svg">
<path d="M103 185.755C145.5 188.255 163.722 171.748 164.5 130.255C166 50.2549 180.5 33.7549 279 27.2553V26.2553C183 31.2549 163.5 48.2549 163.5 130.255C161 170.755 146.5 185.755 103 184.755V185.755Z" fill="#000000"/>
<circle cx="277.5" cy="26.5" r="2.5" transform="rotate(180 277.5 26.5)" fill="#3C1BBF"/>
<circle cx="102.5" cy="185.5" r="2.5" transform="rotate(180 102.5 185.5)" fill="#3C1BBF"/>
<path d="M2 88.755C35 90.2554 54.8733 84.1532 69 66.755C116.5 8.25488 112 2.75527 278 2.75527V1.25527C128.5 3.25554 118 -1.24447 68 66.255C55.0237 83.7728 29.5 90.2554 2 87.7551V88.755Z" fill="#000000"/>
<circle cx="277.5" cy="2.5" r="2.5" transform="rotate(180 277.5 2.5)" fill="#3C1BBF"/>
<circle cx="2.5" cy="88.5" r="2.5" transform="rotate(180 2.5 88.5)" fill="#3C1BBF"/>
</svg>
