<svg width="280" height="188" viewBox="0 0 280 188" fill="none" xmlns="http://www.w3.org/2000/svg">
<path d="M103 2.24499C145.5 -0.254777 163.722 16.2524 164.5 57.7451C166 137.745 180.5 154.245 279 160.745V161.745C183 156.745 163.5 139.745 163.5 57.7451C161 17.2451 146.5 2.24499 103 3.24489V2.24499Z" fill="#000000"/>
<circle cx="2.5" cy="2.5" r="2.5" transform="matrix(-1 0 0 1 280 159)" fill="#3C1BBF"/>
<circle cx="2.5" cy="2.5" r="2.5" transform="matrix(-1 0 0 1 105 0)" fill="#3C1BBF"/>
<path d="M2 99.245C35 97.7446 54.8733 103.847 69 121.245C116.5 179.745 112 185.245 278 185.245V186.745C128.5 184.744 118 189.244 68 121.745C55.0237 104.227 29.5 97.7446 2 100.245V99.245Z" fill="#000000"/>
<circle cx="2.5" cy="2.5" r="2.5" transform="matrix(-1 0 0 1 280 183)" fill="#3C1BBF"/>
<circle cx="2.5" cy="2.5" r="2.5" transform="matrix(-1 0 0 1 5 97)" fill="#3C1BBF"/>
</svg>
