<svg width="280" height="188" viewBox="0 0 280 188" fill="none" xmlns="http://www.w3.org/2000/svg">
<path d="M177 185.755C134.5 188.255 116.278 171.748 115.5 130.255C114 50.2549 99.5 33.7549 1 27.2553V26.2553C97 31.2549 116.5 48.2549 116.5 130.255C119 170.755 133.5 185.755 177 184.755V185.755Z" fill="#000000"/>
<circle cx="2.5" cy="2.5" r="2.5" transform="matrix(1 0 0 -1 0 29)" fill="#3C1BBF"/>
<circle cx="2.5" cy="2.5" r="2.5" transform="matrix(1 0 0 -1 175 188)" fill="#3C1BBF"/>
<path d="M278 88.755C245 90.2554 225.127 84.1532 211 66.755C163.5 8.25488 168 2.75527 2 2.75527V1.25527C151.5 3.25554 162 -1.24447 212 66.255C224.976 83.7728 250.5 90.2554 278 87.7551V88.755Z" fill="#000000"/>
<circle cx="2.5" cy="2.5" r="2.5" transform="matrix(1 0 0 -1 0 5)" fill="#3C1BBF"/>
<circle cx="2.5" cy="2.5" r="2.5" transform="matrix(1 0 0 -1 275 91)" fill="#3C1BBF"/>
</svg>
