<svg width="280" height="188" viewBox="0 0 280 188" fill="none" xmlns="http://www.w3.org/2000/svg">
<path d="M177 2.24499C134.5 -0.254777 116.278 16.2524 115.5 57.7451C114 137.745 99.5 154.245 1 160.745V161.745C97 156.745 116.5 139.745 116.5 57.7451C119 17.2451 133.5 2.24499 177 3.24489V2.24499Z" fill="#000000"/>
<circle cx="2.5" cy="161.5" r="2.5" fill="#3C1BBF"/>
<circle cx="177.5" cy="2.5" r="2.5" fill="#3C1BBF"/>
<path d="M278 99.245C245 97.7446 225.127 103.847 211 121.245C163.5 179.745 168 185.245 2 185.245V186.745C151.5 184.744 162 189.244 212 121.745C224.976 104.227 250.5 97.7446 278 100.245V99.245Z" fill="#000000"/>
<circle cx="2.5" cy="185.5" r="2.5" fill="#3C1BBF"/>
<circle cx="277.5" cy="99.5" r="2.5" fill="#3C1BBF"/>
</svg>
